M48
; DRILL file {KiCad (6.0.2)} date Wed Apr 13 20:22:02 2022
; FORMAT={-:-/ absolute / inch / decimal}
; #@! TF.CreationDate,2022-04-13T20:22:02+01:00
; #@! TF.GenerationSoftware,Kicad,Pcbnew,(6.0.2)
; #@! TF.FileFunction,Plated,1,2,PTH
FMAT,2
INCH
; #@! TA.AperFunction,Plated,PTH,ComponentDrill
T1C0.0394
%
G90
G05
T1
X5.047Y-3.001
X5.047Y-3.101
X5.047Y-3.201
X5.047Y-3.301
X5.047Y-3.401
X5.047Y-3.501
X5.047Y-3.601
X5.047Y-3.701
X5.047Y-3.801
X5.047Y-3.901
X5.047Y-4.001
X5.047Y-4.101
X5.047Y-4.201
X5.047Y-4.301
X5.047Y-4.401
X5.047Y-4.501
X5.047Y-4.601
X5.047Y-4.701
X5.047Y-4.801
X5.047Y-4.901
X5.047Y-5.001
X5.047Y-5.101
X5.047Y-5.201
X5.047Y-5.301
T0
M30
