%TF.GenerationSoftware,KiCad,Pcbnew,(6.0.2)*%
%TF.CreationDate,2022-04-13T20:21:55+01:00*%
%TF.ProjectId,Helena Aux,48656c65-6e61-4204-9175-782e6b696361,rev?*%
%TF.SameCoordinates,Original*%
%TF.FileFunction,Soldermask,Top*%
%TF.FilePolarity,Negative*%
%FSLAX46Y46*%
G04 Gerber Fmt 4.6, Leading zero omitted, Abs format (unit mm)*
G04 Created by KiCad (PCBNEW (6.0.2)) date 2022-04-13 20:21:55*
%MOMM*%
%LPD*%
G01*
G04 APERTURE LIST*
G04 Aperture macros list*
%AMRoundRect*
0 Rectangle with rounded corners*
0 $1 Rounding radius*
0 $2 $3 $4 $5 $6 $7 $8 $9 X,Y pos of 4 corners*
0 Add a 4 corners polygon primitive as box body*
4,1,4,$2,$3,$4,$5,$6,$7,$8,$9,$2,$3,0*
0 Add four circle primitives for the rounded corners*
1,1,$1+$1,$2,$3*
1,1,$1+$1,$4,$5*
1,1,$1+$1,$6,$7*
1,1,$1+$1,$8,$9*
0 Add four rect primitives between the rounded corners*
20,1,$1+$1,$2,$3,$4,$5,0*
20,1,$1+$1,$4,$5,$6,$7,0*
20,1,$1+$1,$6,$7,$8,$9,0*
20,1,$1+$1,$8,$9,$2,$3,0*%
G04 Aperture macros list end*
%ADD10R,1.700000X1.700000*%
%ADD11O,1.700000X1.700000*%
%ADD12RoundRect,0.381000X-0.762000X-0.381000X0.762000X-0.381000X0.762000X0.381000X-0.762000X0.381000X0*%
G04 APERTURE END LIST*
D10*
%TO.C,REF\u002A\u002A*%
X128193800Y-76225400D03*
D11*
X128193800Y-78765400D03*
X128193800Y-81305400D03*
X128193800Y-83845400D03*
X128193800Y-86385400D03*
X128193800Y-88925400D03*
X128193800Y-91465400D03*
X128193800Y-94005400D03*
X128193800Y-96545400D03*
X128193800Y-99085400D03*
X128193800Y-101625400D03*
X128193800Y-104165400D03*
X128193800Y-106705400D03*
X128193800Y-109245400D03*
X128193800Y-111785400D03*
X128193800Y-114325400D03*
X128193800Y-116865400D03*
X128193800Y-119405400D03*
X128193800Y-121945400D03*
X128193800Y-124485400D03*
X128193800Y-127025400D03*
X128193800Y-129565400D03*
X128193800Y-132105400D03*
X128193800Y-134645400D03*
%TD*%
D12*
%TO.C,REF\u002A\u002A*%
X131521200Y-134416800D03*
X131521200Y-75996800D03*
X131521200Y-78536800D03*
X131521200Y-81076800D03*
X131521200Y-83616800D03*
X131521200Y-86156800D03*
X131521200Y-88696800D03*
X131521200Y-91236800D03*
X131521200Y-93776800D03*
X131521200Y-96316800D03*
X131521200Y-98856800D03*
X131521200Y-101396800D03*
X131521200Y-103936800D03*
X131521200Y-106476800D03*
X131521200Y-109016800D03*
X131521200Y-111556800D03*
X131521200Y-114096800D03*
X131521200Y-116636800D03*
X131521200Y-119176800D03*
X131521200Y-121716800D03*
X131521200Y-124256800D03*
X131521200Y-126796800D03*
X131521200Y-129336800D03*
X131521200Y-131876800D03*
%TD*%
M02*
