M48
; DRILL file {KiCad (6.0.1)} date Thu Jan 27 20:11:09 2022
; FORMAT={-:-/ absolute / inch / decimal}
; #@! TF.CreationDate,2022-01-27T20:11:09+00:00
; #@! TF.GenerationSoftware,Kicad,Pcbnew,(6.0.1)
; #@! TF.FileFunction,NonPlated,1,2,NPTH
FMAT,2
INCH
; #@! TA.AperFunction,NonPlated,NPTH,ComponentDrill
T1C0.0669
; #@! TA.AperFunction,NonPlated,NPTH,ComponentDrill
T2C0.0984
; #@! TA.AperFunction,NonPlated,NPTH,ComponentDrill
T3C0.1201
; #@! TA.AperFunction,NonPlated,NPTH,ComponentDrill
T4C0.1575
%
G90
G05
T1
X1.505Y-3.35
X1.695Y-4.1
X1.785Y-4.85
X1.905Y-3.35
X1.97Y-5.6
X2.095Y-4.1
X2.185Y-4.85
X2.35Y-3.35
X2.37Y-5.6
X2.725Y-4.1
X2.75Y-3.35
X2.91Y-4.85
X3.1Y-3.35
X3.125Y-4.1
X3.295Y-5.6
X3.31Y-4.85
X3.475Y-4.1
X3.5Y-3.35
X3.66Y-4.85
X3.695Y-5.6
X3.85Y-3.35
X3.875Y-4.1
X4.045Y-5.6
X4.06Y-4.85
X4.225Y-4.1
X4.25Y-3.35
X4.41Y-4.85
X4.445Y-5.6
X4.6Y-3.35
X4.625Y-4.1
X4.795Y-5.6
X4.81Y-4.85
X4.975Y-4.1
X5.0Y-3.35
X5.16Y-4.85
X5.195Y-5.6
X5.35Y-3.35
X5.375Y-4.1
X5.545Y-5.6
X5.56Y-4.85
X5.725Y-4.1
X5.75Y-3.35
X5.91Y-4.85
X5.945Y-5.6
X6.1Y-3.35
X6.125Y-4.1
X6.295Y-5.6
X6.31Y-4.85
X6.475Y-4.1
X6.5Y-3.35
X6.66Y-4.85
X6.675Y-6.35
X6.695Y-5.6
X6.85Y-3.35
X6.875Y-4.1
X7.045Y-5.6
X7.06Y-4.85
X7.075Y-6.35
X7.225Y-4.1
X7.25Y-3.35
X7.41Y-4.85
X7.445Y-5.6
X7.6Y-3.35
X7.625Y-4.1
X7.795Y-5.6
X7.81Y-4.85
X7.975Y-4.1
X8.0Y-3.35
X8.16Y-4.85
X8.195Y-5.6
X8.35Y-3.35
X8.375Y-4.1
X8.545Y-5.6
X8.56Y-4.85
X8.725Y-4.1
X8.75Y-3.35
X8.91Y-4.85
X8.945Y-5.6
X9.1Y-3.35
X9.125Y-4.1
X9.295Y-5.6
X9.31Y-4.85
X9.475Y-4.1
X9.5Y-3.35
X9.66Y-4.85
X9.695Y-5.6
X9.85Y-3.35
X9.875Y-4.1
X10.045Y-5.6
X10.06Y-4.85
X10.225Y-4.1
X10.25Y-3.35
X10.41Y-4.85
X10.445Y-5.6
X10.6Y-3.35
X10.625Y-4.1
X10.81Y-4.85
X10.975Y-4.1
X11.0Y-3.35
X11.075Y-5.6
X11.16Y-4.85
X11.35Y-3.35
X11.375Y-4.1
X11.475Y-5.6
X11.56Y-4.85
X11.75Y-3.35
X11.915Y-4.1
X12.01Y-4.85
X12.1Y-3.35
X12.105Y-5.6
X12.315Y-4.1
X12.41Y-4.85
X12.5Y-3.35
X12.505Y-5.6
X13.575Y-3.35
X13.575Y-4.1
X13.575Y-4.85
X13.575Y-5.6
X13.575Y-6.35
X13.975Y-3.35
X13.975Y-4.1
X13.975Y-4.85
X13.975Y-5.6
X13.975Y-6.35
T2
X1.6027Y-4.3923
X1.8777Y-5.8923
X1.9973Y-3.0577
X5.0677Y-5.1423
X5.0923Y-3.0577
X7.1327Y-4.3923
X7.1673Y-6.0577
X8.0923Y-3.0577
X9.2027Y-5.8923
X10.3423Y-3.0577
X10.8827Y-4.3923
X12.0127Y-5.8923
X12.5023Y-4.5577
X12.5923Y-3.0577
X13.4827Y-3.0577
X13.4827Y-6.0577
X14.0673Y-5.1423
X14.3291Y-6.7663
T3
X1.5165Y-4.5744
X2.4535Y-4.5744
X4.9065Y-6.0744
X8.8435Y-6.0744
T4
X1.5165Y-5.1744
X1.705Y-3.35
X1.895Y-4.1
X1.985Y-4.85
X2.17Y-5.6
X2.4535Y-5.1744
X2.55Y-3.35
X2.925Y-4.1
X3.11Y-4.85
X3.3Y-3.35
X3.495Y-5.6
X3.675Y-4.1
X3.86Y-4.85
X4.05Y-3.35
X4.245Y-5.6
X4.425Y-4.1
X4.61Y-4.85
X4.8Y-3.35
X4.9065Y-6.6744
X4.995Y-5.6
X5.175Y-4.1
X5.36Y-4.85
X5.55Y-3.35
X5.745Y-5.6
X5.925Y-4.1
X6.11Y-4.85
X6.3Y-3.35
X6.495Y-5.6
X6.675Y-4.1
X6.86Y-4.85
X6.875Y-6.35
X7.05Y-3.35
X7.245Y-5.6
X7.425Y-4.1
X7.61Y-4.85
X7.8Y-3.35
X7.995Y-5.6
X8.175Y-4.1
X8.36Y-4.85
X8.55Y-3.35
X8.745Y-5.6
X8.8435Y-6.6744
X8.925Y-4.1
X9.11Y-4.85
X9.3Y-3.35
X9.495Y-5.6
X9.675Y-4.1
X9.86Y-4.85
X10.05Y-3.35
X10.245Y-5.6
X10.425Y-4.1
X10.61Y-4.85
X10.8Y-3.35
X11.175Y-4.1
X11.275Y-5.6
X11.36Y-4.85
X11.55Y-3.35
X12.115Y-4.1
X12.21Y-4.85
X12.3Y-3.35
X12.305Y-5.6
X13.775Y-3.35
X13.775Y-4.1
X13.775Y-4.85
X13.775Y-5.6
X13.775Y-6.35
T0
M30
