G04 #@! TF.GenerationSoftware,KiCad,Pcbnew,(6.0.1)*
G04 #@! TF.CreationDate,2022-01-27T20:11:12+00:00*
G04 #@! TF.ProjectId,Project Helena,50726f6a-6563-4742-9048-656c656e612e,B*
G04 #@! TF.SameCoordinates,Original*
G04 #@! TF.FileFunction,Soldermask,Bot*
G04 #@! TF.FilePolarity,Negative*
%FSLAX46Y46*%
G04 Gerber Fmt 4.6, Leading zero omitted, Abs format (unit mm)*
G04 Created by KiCad (PCBNEW (6.0.1)) date 2022-01-27 20:11:12*
%MOMM*%
%LPD*%
G01*
G04 APERTURE LIST*
G04 Aperture macros list*
%AMRoundRect*
0 Rectangle with rounded corners*
0 $1 Rounding radius*
0 $2 $3 $4 $5 $6 $7 $8 $9 X,Y pos of 4 corners*
0 Add a 4 corners polygon primitive as box body*
4,1,4,$2,$3,$4,$5,$6,$7,$8,$9,$2,$3,0*
0 Add four circle primitives for the rounded corners*
1,1,$1+$1,$2,$3*
1,1,$1+$1,$4,$5*
1,1,$1+$1,$6,$7*
1,1,$1+$1,$8,$9*
0 Add four rect primitives between the rounded corners*
20,1,$1+$1,$2,$3,$4,$5,0*
20,1,$1+$1,$4,$5,$6,$7,0*
20,1,$1+$1,$6,$7,$8,$9,0*
20,1,$1+$1,$8,$9,$2,$3,0*%
G04 Aperture macros list end*
%ADD10C,2.602000*%
%ADD11C,1.802000*%
%ADD12C,4.102000*%
%ADD13C,2.302000*%
%ADD14C,3.152000*%
%ADD15RoundRect,0.051000X-0.850000X-0.850000X0.850000X-0.850000X0.850000X0.850000X-0.850000X0.850000X0*%
%ADD16O,1.802000X1.802000*%
%ADD17RoundRect,0.051000X-0.900000X-0.900000X0.900000X-0.900000X0.900000X0.900000X-0.900000X0.900000X0*%
%ADD18C,1.902000*%
G04 APERTURE END LIST*
D10*
X363960000Y-171865000D03*
X342460000Y-153865000D03*
X357310000Y-130615000D03*
X342460000Y-77665000D03*
D11*
X307340000Y-85090000D03*
X317500000Y-85090000D03*
D12*
X312420000Y-85090000D03*
D13*
X314960000Y-80010000D03*
X308610000Y-82550000D03*
D14*
X38519000Y-116190000D03*
D11*
X55499000Y-123190000D03*
D12*
X38519000Y-131430000D03*
X50419000Y-123190000D03*
D11*
X45339000Y-123190000D03*
D14*
X62319000Y-116190000D03*
D12*
X62319000Y-131430000D03*
D13*
X52959000Y-118110000D03*
X46609000Y-120650000D03*
D11*
X184150000Y-85090000D03*
X173990000Y-85090000D03*
D12*
X179070000Y-85090000D03*
D13*
X181610000Y-80010000D03*
X175260000Y-82550000D03*
D12*
X160020000Y-85090000D03*
D11*
X165100000Y-85090000D03*
X154940000Y-85090000D03*
D13*
X162560000Y-80010000D03*
X156210000Y-82550000D03*
D11*
X183515000Y-104140000D03*
X193675000Y-104140000D03*
D12*
X188595000Y-104140000D03*
D13*
X191135000Y-99060000D03*
X184785000Y-101600000D03*
D11*
X174625000Y-104140000D03*
X164465000Y-104140000D03*
D12*
X169545000Y-104140000D03*
D13*
X172085000Y-99060000D03*
X165735000Y-101600000D03*
D11*
X178943000Y-142240000D03*
X189103000Y-142240000D03*
D12*
X184023000Y-142240000D03*
D13*
X186563000Y-137160000D03*
X180213000Y-139700000D03*
D11*
X188214000Y-123190000D03*
D12*
X193294000Y-123190000D03*
D11*
X198374000Y-123190000D03*
D13*
X195834000Y-118110000D03*
X189484000Y-120650000D03*
D11*
X179324000Y-123190000D03*
X169164000Y-123190000D03*
D12*
X174244000Y-123190000D03*
D13*
X176784000Y-118110000D03*
X170434000Y-120650000D03*
D12*
X124625000Y-169530000D03*
X174625000Y-161290000D03*
D14*
X124625000Y-154290000D03*
X224625000Y-154290000D03*
D11*
X169545000Y-161290000D03*
X179705000Y-161290000D03*
D12*
X224625000Y-169530000D03*
D13*
X177165000Y-156210000D03*
X170815000Y-158750000D03*
D11*
X344805000Y-161290000D03*
X354965000Y-161290000D03*
D12*
X349885000Y-161290000D03*
D13*
X352425000Y-156210000D03*
X346075000Y-158750000D03*
D11*
X193040000Y-85090000D03*
D12*
X198120000Y-85090000D03*
D11*
X203200000Y-85090000D03*
D13*
X200660000Y-80010000D03*
X194310000Y-82550000D03*
D12*
X140970000Y-85090000D03*
D11*
X135890000Y-85090000D03*
X146050000Y-85090000D03*
D13*
X143510000Y-80010000D03*
X137160000Y-82550000D03*
D11*
X212725000Y-104140000D03*
X202565000Y-104140000D03*
D12*
X207645000Y-104140000D03*
D13*
X210185000Y-99060000D03*
X203835000Y-101600000D03*
D12*
X150495000Y-104140000D03*
D11*
X145415000Y-104140000D03*
X155575000Y-104140000D03*
D13*
X153035000Y-99060000D03*
X146685000Y-101600000D03*
D11*
X217424000Y-123190000D03*
X207264000Y-123190000D03*
D12*
X212344000Y-123190000D03*
D13*
X214884000Y-118110000D03*
X208534000Y-120650000D03*
D11*
X160274000Y-123190000D03*
D12*
X155194000Y-123190000D03*
D11*
X150114000Y-123190000D03*
D13*
X157734000Y-118110000D03*
X151384000Y-120650000D03*
D11*
X197993000Y-142240000D03*
X208153000Y-142240000D03*
D12*
X203073000Y-142240000D03*
D13*
X205613000Y-137160000D03*
X199263000Y-139700000D03*
D11*
X159893000Y-142240000D03*
D12*
X164973000Y-142240000D03*
D11*
X170053000Y-142240000D03*
D13*
X167513000Y-137160000D03*
X161163000Y-139700000D03*
D11*
X344805000Y-142240000D03*
D12*
X349885000Y-142240000D03*
D11*
X354965000Y-142240000D03*
D13*
X352425000Y-137160000D03*
X346075000Y-139700000D03*
D11*
X222250000Y-85090000D03*
X212090000Y-85090000D03*
D12*
X217170000Y-85090000D03*
D13*
X219710000Y-80010000D03*
X213360000Y-82550000D03*
D11*
X127000000Y-85090000D03*
D12*
X121920000Y-85090000D03*
D11*
X116840000Y-85090000D03*
D13*
X124460000Y-80010000D03*
X118110000Y-82550000D03*
D11*
X231775000Y-104140000D03*
X221615000Y-104140000D03*
D12*
X226695000Y-104140000D03*
D13*
X229235000Y-99060000D03*
X222885000Y-101600000D03*
D11*
X126365000Y-104140000D03*
D12*
X131445000Y-104140000D03*
D11*
X136525000Y-104140000D03*
D13*
X133985000Y-99060000D03*
X127635000Y-101600000D03*
D12*
X231394000Y-123190000D03*
D11*
X236474000Y-123190000D03*
X226314000Y-123190000D03*
D13*
X233934000Y-118110000D03*
X227584000Y-120650000D03*
D11*
X141224000Y-123190000D03*
X131064000Y-123190000D03*
D12*
X136144000Y-123190000D03*
D13*
X138684000Y-118110000D03*
X132334000Y-120650000D03*
D11*
X227203000Y-142240000D03*
D12*
X222123000Y-142240000D03*
D11*
X217043000Y-142240000D03*
D13*
X224663000Y-137160000D03*
X218313000Y-139700000D03*
D11*
X151003000Y-142240000D03*
D12*
X145923000Y-142240000D03*
D11*
X140843000Y-142240000D03*
D13*
X148463000Y-137160000D03*
X142113000Y-139700000D03*
D11*
X354965000Y-123190000D03*
X344805000Y-123190000D03*
D12*
X349885000Y-123190000D03*
D13*
X352425000Y-118110000D03*
X346075000Y-120650000D03*
D12*
X236220000Y-85090000D03*
D11*
X231140000Y-85090000D03*
X241300000Y-85090000D03*
D13*
X238760000Y-80010000D03*
X232410000Y-82550000D03*
D11*
X97790000Y-85090000D03*
D12*
X102870000Y-85090000D03*
D11*
X107950000Y-85090000D03*
D13*
X105410000Y-80010000D03*
X99060000Y-82550000D03*
D12*
X245745000Y-104140000D03*
D11*
X250825000Y-104140000D03*
X240665000Y-104140000D03*
D13*
X248285000Y-99060000D03*
X241935000Y-101600000D03*
D11*
X117475000Y-104140000D03*
X107315000Y-104140000D03*
D12*
X112395000Y-104140000D03*
D13*
X114935000Y-99060000D03*
X108585000Y-101600000D03*
D12*
X250444000Y-123190000D03*
D11*
X255524000Y-123190000D03*
X245364000Y-123190000D03*
D13*
X252984000Y-118110000D03*
X246634000Y-120650000D03*
D11*
X122174000Y-123190000D03*
X112014000Y-123190000D03*
D12*
X117094000Y-123190000D03*
D13*
X119634000Y-118110000D03*
X113284000Y-120650000D03*
D11*
X246253000Y-142240000D03*
D12*
X241173000Y-142240000D03*
D11*
X236093000Y-142240000D03*
D13*
X243713000Y-137160000D03*
X237363000Y-139700000D03*
D12*
X126873000Y-142240000D03*
D11*
X131953000Y-142240000D03*
X121793000Y-142240000D03*
D13*
X129413000Y-137160000D03*
X123063000Y-139700000D03*
D11*
X354965000Y-104140000D03*
X344805000Y-104140000D03*
D12*
X349885000Y-104140000D03*
D13*
X352425000Y-99060000D03*
X346075000Y-101600000D03*
D12*
X255270000Y-85090000D03*
D11*
X260350000Y-85090000D03*
X250190000Y-85090000D03*
D13*
X257810000Y-80010000D03*
X251460000Y-82550000D03*
D12*
X83820000Y-85090000D03*
D11*
X88900000Y-85090000D03*
X78740000Y-85090000D03*
D13*
X86360000Y-80010000D03*
X80010000Y-82550000D03*
D11*
X269875000Y-104140000D03*
D12*
X264795000Y-104140000D03*
D11*
X259715000Y-104140000D03*
D13*
X267335000Y-99060000D03*
X260985000Y-101600000D03*
D11*
X98425000Y-104140000D03*
D12*
X93345000Y-104140000D03*
D11*
X88265000Y-104140000D03*
D13*
X95885000Y-99060000D03*
X89535000Y-101600000D03*
D12*
X269494000Y-123190000D03*
D11*
X264414000Y-123190000D03*
X274574000Y-123190000D03*
D13*
X272034000Y-118110000D03*
X265684000Y-120650000D03*
D11*
X103124000Y-123190000D03*
D12*
X98044000Y-123190000D03*
D11*
X92964000Y-123190000D03*
D13*
X100584000Y-118110000D03*
X94234000Y-120650000D03*
D12*
X260223000Y-142240000D03*
D11*
X265303000Y-142240000D03*
X255143000Y-142240000D03*
D13*
X262763000Y-137160000D03*
X256413000Y-139700000D03*
D11*
X102743000Y-142240000D03*
X112903000Y-142240000D03*
D12*
X107823000Y-142240000D03*
D13*
X110363000Y-137160000D03*
X104013000Y-139700000D03*
D11*
X279400000Y-85090000D03*
X269240000Y-85090000D03*
D12*
X274320000Y-85090000D03*
D13*
X276860000Y-80010000D03*
X270510000Y-82550000D03*
D11*
X59690000Y-85090000D03*
D12*
X64770000Y-85090000D03*
D11*
X69850000Y-85090000D03*
D13*
X67310000Y-80010000D03*
X60960000Y-82550000D03*
D11*
X278765000Y-104140000D03*
X288925000Y-104140000D03*
D12*
X283845000Y-104140000D03*
D13*
X286385000Y-99060000D03*
X280035000Y-101600000D03*
D12*
X74295000Y-104140000D03*
D11*
X69215000Y-104140000D03*
X79375000Y-104140000D03*
D13*
X76835000Y-99060000D03*
X70485000Y-101600000D03*
D12*
X288544000Y-123190000D03*
D11*
X293624000Y-123190000D03*
X283464000Y-123190000D03*
D13*
X291084000Y-118110000D03*
X284734000Y-120650000D03*
D12*
X78994000Y-123190000D03*
D11*
X73914000Y-123190000D03*
X84074000Y-123190000D03*
D13*
X81534000Y-118110000D03*
X75184000Y-120650000D03*
D11*
X317627000Y-142240000D03*
X307467000Y-142240000D03*
D12*
X312547000Y-142240000D03*
D13*
X315087000Y-137160000D03*
X308737000Y-139700000D03*
D11*
X83693000Y-142240000D03*
X93853000Y-142240000D03*
D12*
X88773000Y-142240000D03*
D13*
X91313000Y-137160000D03*
X84963000Y-139700000D03*
D11*
X298450000Y-85090000D03*
D12*
X293370000Y-85090000D03*
D11*
X288290000Y-85090000D03*
D13*
X295910000Y-80010000D03*
X289560000Y-82550000D03*
D11*
X38227000Y-85090000D03*
X48387000Y-85090000D03*
D12*
X43307000Y-85090000D03*
D13*
X45847000Y-80010000D03*
X39497000Y-82550000D03*
D12*
X307721000Y-104140000D03*
D11*
X302641000Y-104140000D03*
X312801000Y-104140000D03*
D13*
X310261000Y-99060000D03*
X303911000Y-101600000D03*
D12*
X48133000Y-104140000D03*
D11*
X53213000Y-104140000D03*
X43053000Y-104140000D03*
D13*
X50673000Y-99060000D03*
X44323000Y-101600000D03*
D12*
X310134000Y-123190000D03*
D11*
X315214000Y-123190000D03*
X305054000Y-123190000D03*
D13*
X312674000Y-118110000D03*
X306324000Y-120650000D03*
D11*
X291465000Y-142240000D03*
D12*
X286385000Y-142240000D03*
D11*
X281305000Y-142240000D03*
D13*
X288925000Y-137160000D03*
X282575000Y-139700000D03*
D11*
X50038000Y-142240000D03*
D12*
X55118000Y-142240000D03*
D11*
X60198000Y-142240000D03*
D13*
X57658000Y-137160000D03*
X51308000Y-139700000D03*
D15*
X327660000Y-132080000D03*
D16*
X327660000Y-134620000D03*
X327660000Y-137160000D03*
X327660000Y-139700000D03*
X327660000Y-142240000D03*
X327660000Y-144780000D03*
X327660000Y-147320000D03*
X327660000Y-149860000D03*
X364000000Y-149860000D03*
X364000000Y-147320000D03*
X364000000Y-144780000D03*
X364000000Y-142240000D03*
X364000000Y-139700000D03*
X364000000Y-137160000D03*
X364000000Y-134620000D03*
D15*
X364000000Y-132080000D03*
D11*
X344805000Y-85090000D03*
D12*
X349885000Y-85090000D03*
D11*
X354965000Y-85090000D03*
D13*
X352425000Y-80010000D03*
X346075000Y-82550000D03*
D17*
X370840000Y-174625000D03*
D18*
X373380000Y-174625000D03*
D15*
X334000000Y-80000000D03*
D16*
X334000000Y-82540000D03*
X334000000Y-85080000D03*
X334000000Y-87620000D03*
X334000000Y-90160000D03*
X334000000Y-92700000D03*
X334000000Y-95240000D03*
X334000000Y-97780000D03*
X334000000Y-100320000D03*
X334000000Y-102860000D03*
X334000000Y-105400000D03*
X334000000Y-107940000D03*
X334000000Y-110480000D03*
X334000000Y-113020000D03*
X334000000Y-115560000D03*
X334000000Y-118100000D03*
X334000000Y-120640000D03*
X334000000Y-123180000D03*
X334000000Y-125720000D03*
X334000000Y-128260000D03*
X334000000Y-130800000D03*
X334000000Y-133340000D03*
X334000000Y-135880000D03*
X334000000Y-138420000D03*
D10*
X182050000Y-153865000D03*
X128719000Y-130615000D03*
X47693000Y-149665000D03*
X317559000Y-115765000D03*
X305122000Y-149665000D03*
X181170000Y-111565000D03*
X50732000Y-77665000D03*
X233748000Y-149665000D03*
X319845000Y-77665000D03*
X205545000Y-77665000D03*
X276420000Y-111565000D03*
X129345000Y-77665000D03*
X262695000Y-77665000D03*
X40708000Y-111565000D03*
M02*
